HIERARCHY
ROOT Hips
{
	OFFSET 0.000000 0.000000 0.000000
	CHANNELS 6 Xposition Yposition Zposition Xrotation Yrotation Zrotation
	JOINT LeftUpLeg_virtual
	{
		OFFSET 0.000000 0.000000 0.000000
		CHANNELS 3 Xrotation Yrotation Zrotation
		JOINT LeftUpLeg
		{
			OFFSET 11.394100 -6.187798 -0.413800
			CHANNELS 3 Xrotation Yrotation Zrotation
			JOINT LeftLeg
			{
				OFFSET 0.430247 -32.302673 3.732800
				CHANNELS 3 Xrotation Yrotation Zrotation
				JOINT LeftFoot
				{
					OFFSET -0.430247 -48.264931 -6.423300
					CHANNELS 3 Xrotation Yrotation Zrotation
					JOINT LeftToeBase
					{
						OFFSET 4.230900 -16.068199 23.438400
						CHANNELS 3 Xrotation Yrotation Zrotation
						JOINT LeftToe_End
						{
							OFFSET 4.510700 0.695400 19.974600
							CHANNELS 3 Xrotation Yrotation Zrotation
							End Site
							{
								OFFSET 0 0 0
							}
						}
					}
				}
			}
		}
	}
	JOINT RightUpLeg_virtual
	{
		OFFSET 0.000000 0.000000 0.000000
		CHANNELS 3 Xrotation Yrotation Zrotation
		JOINT RightUpLeg
		{
			OFFSET -11.333700 -6.187798 -0.413800
			CHANNELS 3 Xrotation Yrotation Zrotation
			JOINT RightLeg
			{
				OFFSET -0.430392 -32.302628 3.733000
				CHANNELS 3 Xrotation Yrotation Zrotation
				JOINT RightFoot
				{
					OFFSET 0.430392 -48.264973 -6.423500
					CHANNELS 3 Xrotation Yrotation Zrotation
					JOINT RightToeBase
					{
						OFFSET -4.230900 -16.068199 23.438400
						CHANNELS 3 Xrotation Yrotation Zrotation
						JOINT RightToe_End
						{
							OFFSET -4.510700 0.695400 19.974600
							CHANNELS 3 Xrotation Yrotation Zrotation
							End Site
							{
								OFFSET 0 0 0
							}
						}
					}
				}
			}
		}
	}
	JOINT Spine_virtual
	{
		OFFSET 0.000000 0.000000 0.000000
		CHANNELS 3 Xrotation Yrotation Zrotation
		JOINT Spine
		{
			OFFSET -0.002400 12.777504 0.315300
			CHANNELS 3 Xrotation Yrotation Zrotation
			JOINT Spine1
			{
				OFFSET -0.002067 5.816869 0.032633
				CHANNELS 3 Xrotation Yrotation Zrotation
				JOINT Spine1_split
				{
					OFFSET -0.002067 5.816869 0.032633
					CHANNELS 3 Xrotation Yrotation Zrotation
					JOINT Spine2
					{
						OFFSET -0.002067 5.816869 0.032633
						CHANNELS 3 Xrotation Yrotation Zrotation
						JOINT Neck_virtual
						{
							OFFSET 0.000000 0.000000 0.000000
							CHANNELS 3 Xrotation Yrotation Zrotation
							JOINT Neck
							{
								OFFSET -0.003700 21.199493 -0.826900
								CHANNELS 3 Xrotation Yrotation Zrotation
								JOINT Head
								{
									OFFSET 0.000000 20.442200 4.834800
									CHANNELS 3 Xrotation Yrotation Zrotation
									JOINT HeadTop_End
									{
										OFFSET 0.000000 34.668396 4.968400
										CHANNELS 3 Xrotation Yrotation Zrotation
										End Site
										{
											OFFSET 0 0 0
										}
									}
								}
							}
						}
						JOINT LeftShoulder_virtual
						{
							OFFSET 0.000000 0.000000 0.000000
							CHANNELS 3 Xrotation Yrotation Zrotation
							JOINT LeftShoulder
							{
								OFFSET 3.288150 8.794197 -1.372250
								CHANNELS 3 Xrotation Yrotation Zrotation
								JOINT LeftShoulder_split
								{
									OFFSET 3.288150 8.794197 -1.372250
									CHANNELS 3 Xrotation Yrotation Zrotation
									JOINT LeftArm
									{
										OFFSET 11.953299 -2.279007 -0.146200
										CHANNELS 3 Xrotation Yrotation Zrotation
										JOINT LeftForeArm
										{
											OFFSET 18.448900 0.000000 0.000000
											CHANNELS 3 Xrotation Yrotation Zrotation
											JOINT LeftHand
											{
												OFFSET 29.527798 0.000000 0.000000
												CHANNELS 3 Xrotation Yrotation Zrotation
												End Site
												{
													OFFSET 0 0 0
												}
											}
										}
									}
								}
							}
						}
						JOINT RightShoulder_virtual
						{
							OFFSET 0.000000 0.000000 0.000000
							CHANNELS 3 Xrotation Yrotation Zrotation
							JOINT RightShoulder
							{
								OFFSET -3.249400 8.794197 -1.372250
								CHANNELS 3 Xrotation Yrotation Zrotation
								JOINT RightShoulder_split
								{
									OFFSET -3.249400 8.794197 -1.372250
									CHANNELS 3 Xrotation Yrotation Zrotation
									JOINT RightArm
									{
										OFFSET -11.953299 -2.279007 -0.146200
										CHANNELS 3 Xrotation Yrotation Zrotation
										JOINT RightForeArm
										{
											OFFSET -18.448900 0.000000 0.000000
											CHANNELS 3 Xrotation Yrotation Zrotation
											JOINT RightHand
											{
												OFFSET -29.527802 0.000000 0.000000
												CHANNELS 3 Xrotation Yrotation Zrotation
												End Site
												{
													OFFSET 0 0 0
												}
											}
										}
									}
								}
							}
						}
					}
				}
			}
		}
	}
}
MOTION
Frames: 7
Frame Time: 0.03333333
0.449420 94.808548 11.530494 0.000000 0.000000 0.000000 174.396941 -46.529868 171.405537 -15.202444 23.635629 23.187002 29.954860 4.633832 0.684068 -15.501744 13.830968 -21.588548 0.138685 -4.823451 -5.426159 0.000000 0.000000 0.000000 174.863088 -48.310546 171.407969 -32.218853 -11.363578 -8.537415 33.756113 -12.766474 1.011078 -5.623659 -10.342380 18.124067 1.265456 3.129880 -5.775757 0.000000 0.000000 0.000000 176.071335 -53.641580 172.837158 4.766271 2.005350 2.926975 -0.597032 0.352786 1.780182 0.250542 -0.531559 0.002716 0.000000 0.000000 0.000000 4.875042 1.599039 2.950526 -4.876382 15.215186 6.842029 -11.294760 7.875494 -0.895051 0.000000 0.000000 0.000000 3.846911 -0.376505 2.984753 1.193636 3.749278 -3.248907 -3.380185 -7.369721 0.549734 -19.701409 5.405185 -64.063158 19.674874 -13.355504 1.005958 0.000000 0.000000 0.000000 0.817083 -0.662728 4.412501 -3.496069 0.470815 19.388139 -16.662800 -9.698625 -5.177532 7.277500 31.209388 48.843574 7.968974 27.751014 -4.592989 0.000000 0.000000 0.000000 
0.964039 94.315178 8.765444 0.000000 0.000000 0.000000 175.260359 -44.948539 172.490321 -13.542801 24.351308 24.126202 32.067062 5.364973 0.554885 -13.842644 13.037889 -23.746841 -3.734146 -5.031830 -5.747076 0.000000 0.000000 0.000000 175.669569 -46.605932 172.449408 -33.660490 -10.179612 -7.291777 35.032624 -13.012877 0.773435 -4.101211 -10.263114 18.720165 0.896461 3.013480 -6.493361 0.000000 0.000000 0.000000 177.093678 -51.867063 174.572477 4.868635 0.815592 3.013122 -1.009761 -0.013609 2.086412 0.174403 -0.392017 -0.008639 0.000000 0.000000 0.000000 4.932536 1.340218 3.063665 -5.114920 14.694051 6.010854 -10.500450 8.830084 -0.903807 0.000000 0.000000 0.000000 3.728990 -0.656313 3.379817 0.947814 3.250173 -3.993080 -3.367271 -6.792459 0.289300 -17.259637 3.730967 -64.991190 17.833202 -12.515677 0.280409 0.000000 0.000000 0.000000 0.610466 -1.007964 4.629685 -3.820012 0.458060 19.616172 -15.115342 -9.811504 -4.893562 5.291891 31.989164 49.434037 6.365184 27.534579 -4.701604 0.000000 0.000000 0.000000 
1.355857 93.737816 5.728870 0.000000 0.000000 0.000000 176.644743 -43.956980 173.784506 -11.977362 23.696035 25.012238 34.548545 5.762286 0.434360 -11.879748 11.845051 -25.215091 -10.082191 -4.876382 -6.632465 0.000000 0.000000 0.000000 176.829349 -45.428032 173.431426 -34.259348 -9.273197 -5.631521 35.989920 -12.871073 0.373923 -3.667040 -9.955665 18.650011 1.182109 2.903876 -7.685452 0.000000 0.000000 0.000000 178.332510 -50.299169 176.105267 5.142102 -0.159811 3.266468 -1.399190 -0.348006 2.340632 0.125662 -0.264290 -0.030308 0.000000 0.000000 0.000000 5.004425 1.128678 3.112308 -5.524150 14.349012 5.392309 -9.944462 10.015217 -0.960812 0.000000 0.000000 0.000000 3.627121 -0.903823 3.658711 0.684162 2.627958 -4.173047 -3.096218 -6.365658 0.040335 -14.640128 1.842739 -66.015930 15.820859 -12.023909 -0.699318 0.000000 0.000000 0.000000 0.425525 -1.323281 4.693344 -4.021156 0.788063 19.651798 -13.256997 -9.988895 -4.282464 3.397907 32.728825 50.034489 4.924826 27.395940 -4.735774 0.000000 0.000000 0.000000 
1.523483 93.141991 2.374813 0.000000 0.000000 0.000000 178.419554 -43.053066 175.212452 -10.851968 21.812428 25.726193 36.886297 6.179062 0.166266 -10.327341 10.564674 -25.558042 -18.314351 -4.124765 -8.221595 0.000000 0.000000 0.000000 178.290518 -44.738398 174.384975 -33.861933 -8.818999 -3.597440 36.740066 -12.586113 -0.180735 -5.351794 -9.743288 17.028896 3.559645 2.656931 -9.242004 0.000000 0.000000 0.000000 179.791029 -48.857730 177.470731 5.627135 -0.747165 3.724693 -1.715722 -0.562298 2.462209 0.066048 -0.204349 0.004494 0.000000 0.000000 0.000000 5.085031 1.027102 3.057344 -5.967521 14.207364 5.069811 -9.902187 11.074752 -1.030571 0.000000 0.000000 0.000000 3.521270 -1.047397 3.717265 0.421565 1.968399 -3.841598 -2.460649 -5.824720 -0.146025 -12.307475 0.612443 -67.138007 13.772962 -12.188918 -1.801777 0.000000 0.000000 0.000000 0.272657 -1.515812 4.560610 -4.146536 1.645279 19.613115 -11.193415 -9.938917 -3.673654 1.650177 33.227409 50.724629 3.765613 27.451312 -4.705457 0.000000 0.000000 0.000000 
1.479576 92.492355 -1.003859 0.000000 0.000000 0.000000 -179.747916 -42.217587 176.499970 -10.469820 18.675230 26.099357 39.740899 6.637415 -0.448979 -9.043013 9.292016 -25.078015 -26.797846 -2.618771 -10.256884 0.000000 0.000000 0.000000 179.919409 -44.379465 175.341871 -32.730878 -8.764555 -1.457203 38.044803 -12.093905 -0.718345 -8.787174 -9.316745 13.565275 7.998976 2.187839 -11.033778 0.000000 0.000000 0.000000 -178.521091 -47.728122 178.826879 6.395418 -0.872831 4.372816 -1.966639 -0.626575 2.422399 0.020612 -0.248840 0.041373 0.000000 0.000000 0.000000 5.128267 1.053119 2.911166 -6.271899 14.248436 5.114748 -10.490999 11.935813 -1.154467 0.000000 0.000000 0.000000 3.372408 -1.044630 3.516794 0.181980 1.230659 -3.250292 -1.538644 -5.133933 -0.247620 -10.502036 0.624221 -68.363199 12.062783 -13.129978 -2.831976 0.000000 0.000000 0.000000 0.185946 -1.534985 4.258490 -4.257350 3.096654 19.554840 -9.064225 -9.651968 -3.209244 0.156123 33.491341 51.476653 2.975887 27.702597 -4.628175 0.000000 0.000000 0.000000 
1.220134 91.776054 -4.307041 0.000000 0.000000 0.000000 -178.032023 -41.343934 177.620367 -10.503496 14.768983 25.940784 43.875035 7.635497 -1.606271 -8.372565 8.527376 -23.268069 -33.135331 -0.553254 -12.644574 0.000000 0.000000 0.000000 -178.474974 -44.334048 176.247526 -31.469075 -9.114800 0.410762 40.156496 -11.121274 -1.228353 -12.313562 -8.107452 9.329547 12.235948 1.552239 -13.312427 0.000000 0.000000 0.000000 -176.680028 -46.859643 -179.763079 7.456218 -0.586318 5.126951 -2.198142 -0.559295 2.236783 0.017416 -0.378020 0.082384 0.000000 0.000000 0.000000 5.087549 1.196878 2.709008 -6.350608 14.425441 5.541645 -11.746786 12.490530 -1.515574 0.000000 0.000000 0.000000 3.156599 -0.897049 3.053769 -0.009687 0.274960 -2.800939 -0.490063 -4.234969 -0.228398 -9.273459 2.029336 -69.695127 11.046138 -14.522094 -3.585153 0.000000 0.000000 0.000000 0.162243 -1.362206 3.863076 -4.387118 5.059554 19.558235 -7.110854 -9.403067 -3.069016 -0.831859 33.580188 52.156779 2.550191 28.048785 -4.497519 0.000000 0.000000 0.000000 
0.873616 91.140442 -7.521601 0.000000 0.000000 0.000000 -176.587943 -40.494938 178.467365 -11.204977 10.699286 25.055840 49.488819 9.655413 -3.567571 -9.149108 8.521954 -19.538297 -36.386610 1.655847 -15.407110 0.000000 0.000000 0.000000 -177.030252 -44.602761 177.011019 -30.379309 -9.762505 1.701374 42.664244 -9.166799 -1.820633 -14.395681 -5.798208 6.383461 13.640798 0.952031 -16.600949 0.000000 0.000000 0.000000 -174.592257 -46.207910 -178.138683 8.711368 -0.008426 5.838761 -2.442045 -0.396656 1.937363 0.026392 -0.605601 0.147132 0.000000 0.000000 0.000000 4.884493 1.427102 2.433214 -6.228490 14.693141 6.309940 -13.506876 12.861904 -2.213695 0.000000 0.000000 0.000000 2.971845 -0.666127 2.385216 -0.147597 -0.907707 -2.866441 0.696083 -3.206831 0.074803 -8.173998 4.235586 -71.066903 11.019047 -16.116320 -3.905400 0.000000 0.000000 0.000000 0.170837 -1.012892 3.432949 -4.549534 7.266964 19.566902 -5.331941 -9.527584 -3.056910 -1.280169 33.561777 52.784392 2.482927 28.452181 -4.378203 0.000000 0.000000 0.000000 
